<svg width="1024" height="1024" viewBox="0 0 1024 1024" xmlns="http://www.w3.org/2000/svg">
  <defs>
    <style>
      .logo-circle { 
        fill: none; 
        stroke: #FF1493; 
        stroke-width: 15; 
        stroke-linecap: round;
      }
      .logo-k { 
        fill: #FF1493; 
      }
    </style>
  </defs>
  
  <!-- 黑色背景 -->
  <rect width="1024" height="1024" fill="#000000"/>
  
  <!-- 圆形边框 - 带轻微纹理感 -->
  <circle cx="512" cy="512" r="480" class="logo-circle"/>
  
  <!-- 字母K - 流畅的有机曲线设计 -->
  <!-- 主垂直笔画（带轻微曲线） -->
  <path class="logo-k" d="M 380 200 
    Q 375 250, 380 300
    Q 385 350, 380 400
    Q 375 450, 380 500
    Q 385 550, 380 600
    Q 375 650, 380 700
    Q 385 750, 380 800
    L 400 800
    Q 405 750, 400 700
    Q 395 650, 400 600
    Q 405 550, 400 500
    Q 395 450, 400 400
    Q 405 350, 400 300
    Q 395 250, 400 200
    Z"/>
  
  <!-- 上部分对角线（像叶子/翅膀的形状） -->
  <path class="logo-k" d="M 400 400
    Q 450 370, 500 340
    Q 550 320, 600 310
    Q 650 300, 680 310
    Q 710 320, 730 340
    Q 750 360, 755 390
    Q 760 420, 750 450
    Q 740 480, 720 500
    Q 700 515, 670 520
    Q 640 525, 610 520
    Q 580 515, 550 505
    Q 520 495, 490 480
    Q 460 465, 430 445
    Q 400 425, 400 400
    Z"/>
  
  <!-- 下部分对角线（镜像的叶子形状） -->
  <path class="logo-k" d="M 400 600
    Q 450 630, 500 660
    Q 550 680, 600 700
    Q 650 720, 680 730
    Q 710 740, 730 760
    Q 750 780, 755 810
    Q 760 840, 750 850
    Q 740 860, 720 860
    Q 700 860, 670 850
    Q 640 840, 610 830
    Q 580 820, 550 810
    Q 520 800, 490 785
    Q 460 770, 430 750
    Q 400 730, 400 700
    Q 400 670, 400 600
    Z"/>
</svg>
